#N canvas 66 87 448 490 10;
#X obj 32 421 outlet~;
#X obj 141 421 outlet~;
#X obj 244 421 outlet~;
#X obj 324 421 outlet~;
#X obj 27 61 inlet~;
#X obj 32 336 /~ 1.41421;
#X obj 131 61 inlet;
#X obj 304 61 inlet;
#X text 27 37 signal;
#X text 131 37 azimuth (theta);
#X text 304 37 elevation (phi);
#X text 32 446 W;
#X text 141 446 X;
#X text 244 446 Y;
#X text 324 446 Z;
#X obj 134 179 cos;
#X obj 173 179 sin;
#X obj 307 179 cos;
#X obj 336 179 sin;
#X obj 141 336 *~;
#X obj 243 336 *~;
#X obj 324 336 *~;
#X obj 219 64 loadbang;
#X obj 131 87 \$1;
#X obj 304 87 \$2;
#X obj 141 362 *~;
#X obj 243 362 *~;
#X obj 131 123 * 3.14159;
#X obj 304 120 * 1.57079;
#X connect 4 0 5 0;
#X connect 4 0 19 0;
#X connect 4 0 21 0;
#X connect 4 0 20 0;
#X connect 5 0 0 0;
#X connect 6 0 23 0;
#X connect 7 0 24 0;
#X connect 15 0 19 1;
#X connect 16 0 20 1;
#X connect 17 0 25 1;
#X connect 17 0 26 1;
#X connect 18 0 21 1;
#X connect 19 0 25 0;
#X connect 20 0 26 0;
#X connect 21 0 3 0;
#X connect 22 0 23 0;
#X connect 22 0 24 0;
#X connect 23 0 27 0;
#X connect 24 0 28 0;
#X connect 25 0 1 0;
#X connect 26 0 2 0;
#X connect 27 0 15 0;
#X connect 27 0 16 0;
#X connect 28 0 17 0;
#X connect 28 0 18 0;
