#N canvas 99 115 658 421 10;
#X obj 199 25 inlet~;
#X obj 303 29 inlet~;
#X obj 415 29 inlet~;
#X obj 538 26 inlet~;
#X text 199 5 W;
#X text 303 9 X;
#X text 415 9 Y;
#X text 538 6 Z;
#X obj 21 333 outlet~;
#X obj 123 333 outlet~;
#X obj 245 331 outlet~;
#X obj 344 331 outlet~;
#X obj 21 177 +~;
#X obj 241 177 -~;
#X obj 444 334 outlet~;
#X obj 546 334 outlet~;
#X obj 122 217 +~;
#X text 21 359 1;
#X text 123 359 2;
#X text 245 357 3;
#X text 344 357 4;
#X text 444 360 5;
#X text 546 360 6;
#X obj 199 55 *~ 0.2357;
#X obj 122 177 +~;
#X obj 343 177 -~;
#X obj 546 183 +~;
#X obj 241 217 +~;
#X obj 444 221 -~;
#X obj 547 223 -~;
#X obj 443 181 -~;
#X obj 289 76 *~ 0.3333;
#X obj 309 54 *~ 0.1667;
#X obj 418 78 *~ 0.2887;
#X connect 0 0 23 0;
#X connect 1 0 31 0;
#X connect 1 0 32 0;
#X connect 2 0 33 0;
#X connect 12 0 8 0;
#X connect 13 0 27 0;
#X connect 16 0 9 0;
#X connect 23 0 12 0;
#X connect 23 0 13 0;
#X connect 23 0 24 0;
#X connect 23 0 25 0;
#X connect 23 0 26 0;
#X connect 23 0 30 0;
#X connect 24 0 16 0;
#X connect 25 0 11 0;
#X connect 26 0 29 0;
#X connect 27 0 10 0;
#X connect 28 0 14 0;
#X connect 29 0 15 0;
#X connect 30 0 28 0;
#X connect 31 0 12 1;
#X connect 31 0 25 1;
#X connect 32 0 24 1;
#X connect 32 0 13 1;
#X connect 32 0 30 1;
#X connect 32 0 26 1;
#X connect 33 0 16 1;
#X connect 33 0 27 1;
#X connect 33 0 28 1;
#X connect 33 0 29 1;
