#N canvas 42 77 788 411 10;
#X obj 199 25 inlet~;
#X obj 303 29 inlet~;
#X obj 415 29 inlet~;
#X obj 538 26 inlet~;
#X text 199 5 W;
#X text 303 9 X;
#X text 415 9 Y;
#X text 538 6 Z;
#X obj 21 333 outlet~;
#X obj 123 333 outlet~;
#X obj 219 331 outlet~;
#X obj 318 331 outlet~;
#X obj 21 177 +~;
#X obj 215 177 -~;
#X obj 404 331 outlet~;
#X obj 506 331 outlet~;
#X obj 602 329 outlet~;
#X obj 701 329 outlet~;
#X text 21 359 LFU;
#X text 123 359 LBU;
#X text 219 357 RBU;
#X text 318 357 RFU;
#X text 404 357 LFD;
#X text 506 357 LBD;
#X text 602 355 RBD;
#X text 701 355 RFD;
#X obj 403 180 +~;
#X obj 600 180 -~;
#X obj 404 220 +~;
#X obj 601 220 -~;
#X obj 21 217 +~;
#X obj 215 217 -~;
#X obj 21 269 +~;
#X obj 122 177 -~;
#X obj 303 56 *~ 0.25;
#X obj 414 58 *~ 0.25;
#X obj 538 56 *~ 0.1768;
#X obj 199 55 *~ 0.1768;
#X obj 124 269 +~;
#X obj 219 269 +~;
#X obj 317 269 +~;
#X obj 404 267 -~;
#X obj 507 267 -~;
#X obj 602 267 -~;
#X obj 700 267 -~;
#X obj 317 217 -~;
#X obj 507 220 +~;
#X obj 695 220 -~;
#X obj 122 217 +~;
#X obj 317 177 +~;
#X obj 506 180 -~;
#X obj 694 180 +~;
#X connect 0 0 37 0;
#X connect 1 0 34 0;
#X connect 2 0 35 0;
#X connect 3 0 36 0;
#X connect 12 0 30 0;
#X connect 13 0 31 0;
#X connect 26 0 28 0;
#X connect 27 0 29 0;
#X connect 28 0 41 0;
#X connect 29 0 43 0;
#X connect 30 0 32 0;
#X connect 31 0 39 0;
#X connect 32 0 8 0;
#X connect 33 0 48 0;
#X connect 34 0 12 1;
#X connect 34 0 13 1;
#X connect 34 0 26 1;
#X connect 34 0 27 1;
#X connect 34 0 33 1;
#X connect 34 0 49 1;
#X connect 34 0 50 1;
#X connect 34 0 51 1;
#X connect 35 0 30 1;
#X connect 35 0 31 1;
#X connect 35 0 28 1;
#X connect 35 0 29 1;
#X connect 35 0 45 1;
#X connect 35 0 46 1;
#X connect 35 0 47 1;
#X connect 35 0 48 1;
#X connect 36 0 32 1;
#X connect 36 0 38 1;
#X connect 36 0 39 1;
#X connect 36 0 40 1;
#X connect 36 0 41 1;
#X connect 36 0 42 1;
#X connect 36 0 43 1;
#X connect 36 0 44 1;
#X connect 37 0 12 0;
#X connect 37 0 13 0;
#X connect 37 0 26 0;
#X connect 37 0 27 0;
#X connect 37 0 33 0;
#X connect 37 0 49 0;
#X connect 37 0 50 0;
#X connect 37 0 51 0;
#X connect 38 0 9 0;
#X connect 39 0 10 0;
#X connect 40 0 11 0;
#X connect 41 0 14 0;
#X connect 42 0 15 0;
#X connect 43 0 16 0;
#X connect 44 0 17 0;
#X connect 45 0 40 0;
#X connect 46 0 42 0;
#X connect 47 0 44 0;
#X connect 48 0 38 0;
#X connect 49 0 45 0;
#X connect 50 0 46 0;
#X connect 51 0 47 0;
