#N canvas 200 52 529 502 10;
#X obj 21 32 inlet~;
#X obj 94 32 inlet~;
#X obj 168 32 inlet~;
#X obj 234 32 inlet~;
#X text 21 12 W;
#X text 94 12 X;
#X text 168 12 Y;
#X text 234 12 Z;
#X obj 21 333 outlet~;
#X text 21 359 LF;
#X obj 123 333 outlet~;
#X obj 219 331 outlet~;
#X obj 318 331 outlet~;
#X text 123 359 LB;
#X text 219 357 RB;
#X text 318 357 RF;
#X obj 21 177 +~;
#X obj 117 177 -~;
#X obj 21 269 +~;
#X obj 210 177 -~;
#X obj 219 269 -~;
#X obj 317 269 -~;
#X obj 312 177 +~;
#X obj 124 269 +~;
#X obj 93 63 *~ 0.3536;
#X obj 166 64 *~ 0.3536;
#X obj 21 62 *~ 0.3536;
#X connect 0 0 26 0;
#X connect 1 0 24 0;
#X connect 2 0 25 0;
#X connect 16 0 18 0;
#X connect 17 0 23 0;
#X connect 18 0 8 0;
#X connect 19 0 20 0;
#X connect 20 0 11 0;
#X connect 21 0 12 0;
#X connect 22 0 21 0;
#X connect 23 0 10 0;
#X connect 24 0 16 1;
#X connect 24 0 17 1;
#X connect 24 0 19 1;
#X connect 24 0 22 1;
#X connect 25 0 18 1;
#X connect 25 0 23 1;
#X connect 25 0 20 1;
#X connect 25 0 21 1;
#X connect 26 0 16 0;
#X connect 26 0 17 0;
#X connect 26 0 19 0;
#X connect 26 0 22 0;
