#N canvas 230 190 680 594 10;
#X declare -path .;
#X obj 22 307 noise~;
#X obj -2 15 declare -path .;
#X obj 20 362 AmbiPanner~ 0 0;
#X obj 48 212 hsl 128 15 -1 1 0 0 empty empty Azimuth -2 -8 0 10 -4034
-1 -1 2235 1;
#X obj 102 76 vsl 15 128 -1 1 0 0 empty empty Elevation 0 -9 0 10 -257985
-1 -1 7668 1;
#X text 11 -10 Elevation and Azimuth are both measured from -1 to 1
;
#X floatatom 56 243 5 0 0 0 - - -;
#X floatatom 123 191 5 0 0 0 - - -;
#X obj 14 423 AmbiDecoderCube~;
#X obj 4 499 dac~ 1 2 3 4 5 6 7 8;
#X obj 20 333 *~ 0.01;
#X obj 21 110 metro 5000;
#X obj 20 77 tgl 15 0 empty empty empty 17 7 0 10 -262144 -1 -1 1 1
;
#X obj 20 161 line;
#X msg 20 136 -1 \, 1 5000;
#X obj 178 110 metro 10000;
#X obj 171 79 tgl 15 0 empty empty empty 17 7 0 10 -262144 -1 -1 1
1;
#X msg 172 134 -1 \, 1 10000;
#X obj 169 163 line -1 1;
#X connect 0 0 10 0;
#X connect 2 0 8 0;
#X connect 2 1 8 1;
#X connect 2 2 8 2;
#X connect 2 3 8 3;
#X connect 3 0 2 1;
#X connect 3 0 6 0;
#X connect 4 0 2 2;
#X connect 4 0 7 0;
#X connect 8 0 9 0;
#X connect 8 1 9 1;
#X connect 8 2 9 2;
#X connect 8 3 9 3;
#X connect 8 4 9 4;
#X connect 8 5 9 5;
#X connect 8 6 9 6;
#X connect 8 7 9 7;
#X connect 10 0 2 0;
#X connect 11 0 14 0;
#X connect 12 0 11 0;
#X connect 13 0 3 0;
#X connect 14 0 13 0;
#X connect 15 0 17 0;
#X connect 16 0 15 0;
#X connect 17 0 18 0;
#X connect 18 0 4 0;
