#N canvas 177 100 610 499 10;
#X declare -path .;
#X obj 34 -53 declare -path .;
#X text 47 -78 Elevation and Azimuth are both measured from -1 to 1
;
#X obj 26 294 AmbiDecoderCube~;
#X obj 16 370 dac~ 1 2 3 4 5 6 7 8;
#X obj 30 -1 tgl 15 0 empty empty empty 17 7 0 10 -262144 -1 -1 1 1
;
#X obj 29 50 random 1000;
#X obj 29 73 + 50;
#X obj 30 159 osc~;
#X obj 29 180 *~ 0.01;
#X floatatom 70 86 5 0 0 0 - - -;
#X obj 30 132 line;
#X obj 29 28 metro 1000;
#X obj 31 107 list append 1000;
#X obj 159 -1 tgl 15 0 empty empty empty 17 7 0 10 -262144 -1 -1 1
1;
#X obj 158 50 random 1000;
#X obj 158 73 + 50;
#X obj 159 159 osc~;
#X obj 158 180 *~ 0.01;
#X floatatom 199 86 5 0 0 0 - - -;
#X obj 159 132 line;
#X obj 158 28 metro 1000;
#X obj 160 107 list append 1000;
#X obj 314 -2 tgl 15 0 empty empty empty 17 7 0 10 -262144 -1 -1 1
1;
#X obj 313 49 random 1000;
#X obj 313 72 + 50;
#X obj 314 158 osc~;
#X obj 313 179 *~ 0.01;
#X floatatom 354 85 5 0 0 0 - - -;
#X obj 314 131 line;
#X obj 313 27 metro 1000;
#X obj 315 106 list append 1000;
#X obj 445 -4 tgl 15 0 empty empty empty 17 7 0 10 -262144 -1 -1 1
1;
#X obj 444 47 random 1000;
#X obj 444 70 + 50;
#X obj 445 156 osc~;
#X obj 444 177 *~ 0.01;
#X floatatom 485 83 5 0 0 0 - - -;
#X obj 445 129 line;
#X obj 444 25 metro 1000;
#X obj 446 104 list append 1000;
#X obj 32 233 AmbiPanner~ 0 0.5;
#X obj 161 233 AmbiPanner~ 1 0.5;
#X obj 316 232 AmbiPanner~ 0.5 -0.5;
#X obj 447 230 AmbiPanner~ -0.5 -0.5;
#X connect 2 0 3 0;
#X connect 2 1 3 1;
#X connect 2 2 3 2;
#X connect 2 3 3 3;
#X connect 2 4 3 4;
#X connect 2 5 3 5;
#X connect 2 6 3 6;
#X connect 2 7 3 7;
#X connect 4 0 11 0;
#X connect 5 0 6 0;
#X connect 6 0 9 0;
#X connect 6 0 12 0;
#X connect 7 0 8 0;
#X connect 8 0 40 0;
#X connect 10 0 7 0;
#X connect 11 0 5 0;
#X connect 12 0 10 0;
#X connect 13 0 20 0;
#X connect 14 0 15 0;
#X connect 15 0 18 0;
#X connect 15 0 21 0;
#X connect 16 0 17 0;
#X connect 17 0 41 0;
#X connect 19 0 16 0;
#X connect 20 0 14 0;
#X connect 21 0 19 0;
#X connect 22 0 29 0;
#X connect 23 0 24 0;
#X connect 24 0 27 0;
#X connect 24 0 30 0;
#X connect 25 0 26 0;
#X connect 26 0 42 0;
#X connect 28 0 25 0;
#X connect 29 0 23 0;
#X connect 30 0 28 0;
#X connect 31 0 38 0;
#X connect 32 0 33 0;
#X connect 33 0 36 0;
#X connect 33 0 39 0;
#X connect 34 0 35 0;
#X connect 35 0 43 0;
#X connect 37 0 34 0;
#X connect 38 0 32 0;
#X connect 39 0 37 0;
#X connect 40 0 2 0;
#X connect 40 1 2 1;
#X connect 40 2 2 2;
#X connect 40 3 2 3;
#X connect 41 0 2 0;
#X connect 41 1 2 1;
#X connect 41 2 2 2;
#X connect 41 3 2 3;
#X connect 42 0 2 0;
#X connect 42 1 2 1;
#X connect 42 2 2 2;
#X connect 42 3 2 3;
#X connect 43 0 2 0;
#X connect 43 1 2 1;
#X connect 43 2 2 2;
#X connect 43 3 2 3;
